<svg width="64" height="64" viewBox="0 0 64 64" fill="none" xmlns="http://www.w3.org/2000/svg">
<path d="M32 64C49.6731 64 64 49.6731 64 32C64 14.3269 49.6731 0 32 0C14.3269 0 0 14.3269 0 32C0 49.6731 14.3269 64 32 64Z" fill="#FFD55C"/>
<path d="M41.8613 7.63867H22.1411C20.2756 7.63867 18.7437 9.16642 18.7437 11.0389V52.9643C18.7437 54.8335 20.2756 56.3613 22.1411 56.3613H41.8613C43.7313 56.3613 45.2562 54.8339 45.2562 52.9643V11.0389C45.2558 9.16642 43.7313 7.63867 41.8613 7.63867Z" fill="#242D3C"/>
<path d="M43.3342 15.0049H20.6658V48.9993H43.3342V15.0049Z" fill="white"/>
<path d="M29.8991 53.7308C29.3975 53.7308 28.9895 53.322 28.9895 52.8161V52.5424C28.9895 52.037 29.3975 51.6299 29.8991 51.6299H34.1025C34.6034 51.6299 35.0096 52.037 35.0096 52.5424V52.8161C35.0096 53.3219 34.6034 53.7308 34.1025 53.7308H29.8991Z" fill="#3E4959"/>
<path d="M32.8576 11.3199C32.8576 11.793 32.4757 12.1725 32.0041 12.1725C31.533 12.1725 31.149 11.7926 31.149 11.3199C31.149 10.8491 31.5334 10.4639 32.0041 10.4639C32.4756 10.4639 32.8576 10.8491 32.8576 11.3199Z" fill="#3E4959"/>
<path d="M32.3444 11.3198C32.3444 11.5073 32.192 11.6592 32.0042 11.6592C31.815 11.6592 31.6602 11.5072 31.6602 11.3198C31.6602 11.1328 31.815 10.9775 32.0042 10.9775C32.192 10.9775 32.3444 11.1328 32.3444 11.3198Z" fill="#242D3C"/>
<path d="M24.9398 30.1421H24.1962V30.8853H24.9398V30.1421Z" fill="#242D3C"/>
<path d="M24.9398 31.6284H24.1962V33.1153H24.9398V31.6284Z" fill="#242D3C"/>
<path d="M25.6823 30.8853H24.9395V31.6285H25.6823V30.8853Z" fill="#242D3C"/>
<path d="M25.6823 32.3716H24.9395V33.1148H25.6823V32.3716Z" fill="#242D3C"/>
<path d="M26.4263 30.8853H25.6827V31.6285H26.4263V30.8853Z" fill="#242D3C"/>
<path d="M26.4263 33.115H25.6827V33.8582H26.4263V33.115Z" fill="#242D3C"/>
<path d="M27.169 30.1421H26.4258V31.6286H27.169V30.1421Z" fill="#242D3C"/>
<path d="M27.169 32.3716H26.4258V33.1148H27.169V32.3716Z" fill="#242D3C"/>
<path d="M27.9123 30.1421H27.169V32.3717H27.9123V30.1421Z" fill="#242D3C"/>
<path d="M28.6559 30.1421H27.9123V32.3717H28.6559V30.1421Z" fill="#242D3C"/>
<path d="M28.6559 33.115H27.9123V33.8582H28.6559V33.115Z" fill="#242D3C"/>
<path d="M29.3988 30.1421H28.6556V30.8853H29.3988V30.1421Z" fill="#242D3C"/>
<path d="M29.3988 31.6284H28.6556V32.372H29.3988V31.6284Z" fill="#242D3C"/>
<path d="M29.3988 33.115H28.6556V33.8582H29.3988V33.115Z" fill="#242D3C"/>
<path d="M30.1421 30.1421H29.3988V33.115H30.1421V30.1421Z" fill="#242D3C"/>
<path d="M30.8852 24.196H30.1419V26.4257H30.8852V24.196Z" fill="#242D3C"/>
<path d="M30.8852 27.1689H30.1419V27.9122H30.8852V27.1689Z" fill="#242D3C"/>
<path d="M30.8852 28.6555H30.1419V29.3984H30.8852V28.6555Z" fill="#242D3C"/>
<path d="M30.8852 30.1421H30.1419V30.8853H30.8852V30.1421Z" fill="#242D3C"/>
<path d="M30.8852 32.3716H30.1419V33.1148H30.8852V32.3716Z" fill="#242D3C"/>
<path d="M30.8852 33.8582H30.1419V37.5743H30.8852V33.8582Z" fill="#242D3C"/>
<path d="M30.8852 39.0605H30.1419V39.8042H30.8852V39.0605Z" fill="#242D3C"/>
<path d="M31.6284 24.9395H30.8852V26.426H31.6284V24.9395Z" fill="#242D3C"/>
<path d="M31.6284 27.1689H30.8852V27.9122H31.6284V27.1689Z" fill="#242D3C"/>
<path d="M31.6284 29.3989H30.8852V30.1426H31.6284V29.3989Z" fill="#242D3C"/>
<path d="M31.6284 30.8853H30.8852V32.3721H31.6284V30.8853Z" fill="#242D3C"/>
<path d="M31.6284 33.8582H30.8852V35.3447H31.6284V33.8582Z" fill="#242D3C"/>
<path d="M32.3717 24.196H31.6284V24.9397H32.3717V24.196Z" fill="#242D3C"/>
<path d="M32.3717 27.1689H31.6284V27.9122H32.3717V27.1689Z" fill="#242D3C"/>
<path d="M32.3717 28.6555H31.6284V30.8848H32.3717V28.6555Z" fill="#242D3C"/>
<path d="M32.3717 34.6013H31.6284V35.3442H32.3717V34.6013Z" fill="#242D3C"/>
<path d="M32.3717 36.0876H31.6284V37.5741H32.3717V36.0876Z" fill="#242D3C"/>
<path d="M32.3717 38.3174H31.6284V39.8043H32.3717V38.3174Z" fill="#242D3C"/>
<path d="M33.1149 24.9395H32.3716V27.1687H33.1149V24.9395Z" fill="#242D3C"/>
<path d="M33.1149 27.9124H32.3716V28.656H33.1149V27.9124Z" fill="#242D3C"/>
<path d="M33.1149 29.3989H32.3716V30.1426H33.1149V29.3989Z" fill="#242D3C"/>
<path d="M33.1149 32.3716H32.3716V33.1148H33.1149V32.3716Z" fill="#242D3C"/>
<path d="M33.1149 33.8582H32.3716V34.6018H33.1149V33.8582Z" fill="#242D3C"/>
<path d="M33.1149 35.3445H32.3716V37.5741H33.1149V35.3445Z" fill="#242D3C"/>
<path d="M33.1149 39.0605H32.3716V39.8042H33.1149V39.0605Z" fill="#242D3C"/>
<path d="M33.8582 24.196H33.1149V25.6829H33.8582V24.196Z" fill="#242D3C"/>
<path d="M33.8582 27.1689H33.1149V31.6283H33.8582V27.1689Z" fill="#242D3C"/>
<path d="M33.8582 33.8582H33.1149V37.5743H33.8582V33.8582Z" fill="#242D3C"/>
<path d="M34.6013 30.1421H33.8577V30.8853H34.6013V30.1421Z" fill="#242D3C"/>
<path d="M34.6013 31.6284H33.8577V32.372H34.6013V31.6284Z" fill="#242D3C"/>
<path d="M34.6013 34.6013H33.8577V36.0878H34.6013V34.6013Z" fill="#242D3C"/>
<path d="M34.6013 38.3174H33.8577V39.0606H34.6013V38.3174Z" fill="#242D3C"/>
<path d="M35.3446 30.8853H34.6013V32.3721H35.3446V30.8853Z" fill="#242D3C"/>
<path d="M35.3446 33.115H34.6013V33.8582H35.3446V33.115Z" fill="#242D3C"/>
<path d="M35.3446 34.6013H34.6013V35.3442H35.3446V34.6013Z" fill="#242D3C"/>
<path d="M35.3446 36.0876H34.6013V36.8309H35.3446V36.0876Z" fill="#242D3C"/>
<path d="M35.3446 37.5742H34.6013V39.0607H35.3446V37.5742Z" fill="#242D3C"/>
<path d="M36.0878 33.8582H35.3445V36.831H36.0878V33.8582Z" fill="#242D3C"/>
<path d="M36.8314 30.1421H36.0878V32.3717H36.8314V30.1421Z" fill="#242D3C"/>
<path d="M36.8314 34.6013H36.0878V36.0878H36.8314V34.6013Z" fill="#242D3C"/>
<path d="M36.8314 36.8311H36.0878V37.5743H36.8314V36.8311Z" fill="#242D3C"/>
<path d="M36.8314 38.3174H36.0878V39.0606H36.8314V38.3174Z" fill="#242D3C"/>
<path d="M37.5739 31.6284H36.8311V32.372H37.5739V31.6284Z" fill="#242D3C"/>
<path d="M37.5739 33.115H36.8311V36.8311H37.5739V33.115Z" fill="#242D3C"/>
<path d="M38.3174 30.1421H37.5738V31.6286H38.3174V30.1421Z" fill="#242D3C"/>
<path d="M38.3174 32.3716H37.5738V33.1148H38.3174V32.3716Z" fill="#242D3C"/>
<path d="M38.3174 33.8582H37.5738V36.0878H38.3174V33.8582Z" fill="#242D3C"/>
<path d="M38.3174 36.8311H37.5738V39.8039H38.3174V36.8311Z" fill="#242D3C"/>
<path d="M39.0607 30.1421H38.3174V32.3717H39.0607V30.1421Z" fill="#242D3C"/>
<path d="M39.0607 33.8582H38.3174V34.6018H39.0607V33.8582Z" fill="#242D3C"/>
<path d="M39.0607 36.0876H38.3174V36.8309H39.0607V36.0876Z" fill="#242D3C"/>
<path d="M39.0607 37.5742H38.3174V39.0607H39.0607V37.5742Z" fill="#242D3C"/>
<path d="M38.3173 25.6824H36.0877V27.9116H38.3173V25.6824Z" fill="#FF6D3B"/>
<path d="M34.6013 24.196V29.3987H39.8039V24.196H34.6013ZM39.0606 28.6554H35.3445V24.9393H39.0606V28.6554Z" fill="#FF6D3B"/>
<path d="M39.8039 30.1418H39.0606V30.8851H39.8039V30.1418Z" fill="#242D3C"/>
<path d="M39.8039 31.6282H39.0606V33.8578H39.8039V31.6282Z" fill="#242D3C"/>
<path d="M39.8039 35.3445H39.0606V36.8314H39.8039V35.3445Z" fill="#242D3C"/>
<path d="M39.8039 37.5742H39.0606V39.0607H39.8039V37.5742Z" fill="#242D3C"/>
<path d="M27.9123 25.6824H25.6827V27.9116H27.9123V25.6824Z" fill="#FF6D3B"/>
<path d="M24.1962 24.196V29.3987H29.3988V24.196H24.1962ZM28.6555 28.6554H24.9394V24.9393H28.6555V28.6554Z" fill="#FF6D3B"/>
<path d="M27.9123 36.0876H25.6827V38.3169H27.9123V36.0876Z" fill="#FF6D3B"/>
<path d="M24.1962 34.6018V39.8044H29.3988V34.6018H24.1962ZM28.6555 39.0607H24.9394V35.3446H28.6555V39.0607Z" fill="#FF6D3B"/>
<path d="M39.0606 23.453H40.5471V24.9395H41.2904V22.7097H39.0606V23.453Z" fill="#242D3C"/>
<path d="M23.4533 24.9395V23.453H24.9393V22.7097H22.7096V24.9395H23.4533Z" fill="#242D3C"/>
<path d="M39.0606 40.5473H40.5471V39.0608H41.2904V41.2905H39.0606V40.5473Z" fill="#242D3C"/>
<path d="M23.4533 39.0608V40.5473H24.9393V41.2905H22.7096V39.0608H23.4533Z" fill="#242D3C"/>
</svg>
