<svg width="160" height="160" viewBox="0 0 160 160" fill="none" xmlns="http://www.w3.org/2000/svg">
    <rect x="0.5" y="0.5" width="159" height="159" rx="0.5" fill="#F7F7F7" stroke="#DFDFDF"/>
    <path d="M44.0703 139H42.7988V130.571L40.249 131.508V130.359L43.8721 128.999H44.0703V139ZM49.6143 133.408H50.5645C51.1615 133.399 51.6309 133.242 51.9727 132.937C52.3145 132.631 52.4854 132.219 52.4854 131.699C52.4854 130.533 51.9043 129.949 50.7422 129.949C50.1953 129.949 49.7578 130.106 49.4297 130.421C49.1061 130.731 48.9443 131.143 48.9443 131.658H47.6797C47.6797 130.87 47.9668 130.216 48.541 129.696C49.1198 129.172 49.8535 128.91 50.7422 128.91C51.681 128.91 52.417 129.159 52.9502 129.655C53.4834 130.152 53.75 130.842 53.75 131.727C53.75 132.16 53.6087 132.579 53.3262 132.984C53.0482 133.39 52.6676 133.693 52.1846 133.894C52.7314 134.067 53.153 134.354 53.4492 134.755C53.75 135.156 53.9004 135.646 53.9004 136.225C53.9004 137.118 53.6087 137.826 53.0254 138.351C52.4421 138.875 51.6833 139.137 50.749 139.137C49.8148 139.137 49.0537 138.884 48.4658 138.378C47.8825 137.872 47.5908 137.204 47.5908 136.375H48.8623C48.8623 136.899 49.0332 137.318 49.375 137.633C49.7168 137.947 50.1748 138.104 50.749 138.104C51.3597 138.104 51.8268 137.945 52.1504 137.626C52.474 137.307 52.6357 136.849 52.6357 136.252C52.6357 135.673 52.458 135.229 52.1025 134.919C51.7471 134.609 51.2344 134.45 50.5645 134.44H49.6143V133.408ZM61.6729 131.645C61.6729 132.141 61.5407 132.583 61.2764 132.971C61.0166 133.358 60.6634 133.661 60.2168 133.88C60.7363 134.103 61.1465 134.429 61.4473 134.857C61.7526 135.286 61.9053 135.771 61.9053 136.313C61.9053 137.175 61.6136 137.861 61.0303 138.371C60.4515 138.882 59.6882 139.137 58.7402 139.137C57.7832 139.137 57.0153 138.882 56.4365 138.371C55.8623 137.856 55.5752 137.17 55.5752 136.313C55.5752 135.776 55.721 135.29 56.0127 134.857C56.3089 134.424 56.7168 134.096 57.2363 133.873C56.7943 133.654 56.4456 133.351 56.1904 132.964C55.9352 132.576 55.8076 132.137 55.8076 131.645C55.8076 130.806 56.0765 130.141 56.6143 129.648C57.152 129.156 57.8607 128.91 58.7402 128.91C59.6152 128.91 60.3216 129.156 60.8594 129.648C61.4017 130.141 61.6729 130.806 61.6729 131.645ZM60.6406 136.286C60.6406 135.73 60.4629 135.277 60.1074 134.926C59.7565 134.575 59.2962 134.399 58.7266 134.399C58.1569 134.399 57.6989 134.573 57.3525 134.919C57.0107 135.265 56.8398 135.721 56.8398 136.286C56.8398 136.851 57.0062 137.296 57.3389 137.619C57.6761 137.943 58.1432 138.104 58.7402 138.104C59.3327 138.104 59.7975 137.943 60.1348 137.619C60.472 137.291 60.6406 136.847 60.6406 136.286ZM58.7402 129.949C58.2435 129.949 57.8402 130.104 57.5303 130.414C57.2249 130.719 57.0723 131.136 57.0723 131.665C57.0723 132.171 57.2227 132.581 57.5234 132.896C57.8288 133.205 58.2344 133.36 58.7402 133.36C59.2461 133.36 59.6494 133.205 59.9502 132.896C60.2555 132.581 60.4082 132.171 60.4082 131.665C60.4082 131.159 60.251 130.747 59.9365 130.428C59.6221 130.109 59.2233 129.949 58.7402 129.949ZM63.6553 138.337C63.6553 138.118 63.7191 137.936 63.8467 137.79C63.9788 137.644 64.1748 137.571 64.4346 137.571C64.6943 137.571 64.8903 137.644 65.0225 137.79C65.1592 137.936 65.2275 138.118 65.2275 138.337C65.2275 138.547 65.1592 138.722 65.0225 138.863C64.8903 139.005 64.6943 139.075 64.4346 139.075C64.1748 139.075 63.9788 139.005 63.8467 138.863C63.7191 138.722 63.6553 138.547 63.6553 138.337ZM72.1523 129.04V130.113H71.9199C70.9355 130.132 70.1517 130.423 69.5684 130.988C68.985 131.553 68.6478 132.349 68.5566 133.374C69.0807 132.772 69.7962 132.472 70.7031 132.472C71.569 132.472 72.2594 132.777 72.7744 133.388C73.2939 133.998 73.5537 134.787 73.5537 135.753C73.5537 136.778 73.2734 137.599 72.7129 138.214C72.1569 138.829 71.4095 139.137 70.4707 139.137C69.5182 139.137 68.7458 138.772 68.1533 138.043C67.5609 137.309 67.2646 136.366 67.2646 135.213V134.728C67.2646 132.896 67.6543 131.496 68.4336 130.53C69.2174 129.56 70.3818 129.063 71.9268 129.04H72.1523ZM70.4912 133.524C70.0583 133.524 69.6595 133.654 69.2949 133.914C68.9303 134.174 68.6774 134.5 68.5361 134.892V135.356C68.5361 136.177 68.7207 136.838 69.0898 137.339C69.459 137.84 69.9193 138.091 70.4707 138.091C71.0404 138.091 71.487 137.881 71.8105 137.462C72.1387 137.043 72.3027 136.493 72.3027 135.814C72.3027 135.131 72.1364 134.579 71.8037 134.16C71.4756 133.736 71.0381 133.524 70.4912 133.524ZM81.0869 131.645C81.0869 132.141 80.9548 132.583 80.6904 132.971C80.4307 133.358 80.0775 133.661 79.6309 133.88C80.1504 134.103 80.5605 134.429 80.8613 134.857C81.1667 135.286 81.3193 135.771 81.3193 136.313C81.3193 137.175 81.0277 137.861 80.4443 138.371C79.8656 138.882 79.1022 139.137 78.1543 139.137C77.1973 139.137 76.4294 138.882 75.8506 138.371C75.2764 137.856 74.9893 137.17 74.9893 136.313C74.9893 135.776 75.1351 135.29 75.4268 134.857C75.723 134.424 76.1309 134.096 76.6504 133.873C76.2083 133.654 75.8597 133.351 75.6045 132.964C75.3493 132.576 75.2217 132.137 75.2217 131.645C75.2217 130.806 75.4906 130.141 76.0283 129.648C76.5661 129.156 77.2747 128.91 78.1543 128.91C79.0293 128.91 79.7357 129.156 80.2734 129.648C80.8158 130.141 81.0869 130.806 81.0869 131.645ZM80.0547 136.286C80.0547 135.73 79.877 135.277 79.5215 134.926C79.1706 134.575 78.7103 134.399 78.1406 134.399C77.571 134.399 77.113 134.573 76.7666 134.919C76.4248 135.265 76.2539 135.721 76.2539 136.286C76.2539 136.851 76.4202 137.296 76.7529 137.619C77.0902 137.943 77.5573 138.104 78.1543 138.104C78.7467 138.104 79.2116 137.943 79.5488 137.619C79.8861 137.291 80.0547 136.847 80.0547 136.286ZM78.1543 129.949C77.6576 129.949 77.2542 130.104 76.9443 130.414C76.639 130.719 76.4863 131.136 76.4863 131.665C76.4863 132.171 76.6367 132.581 76.9375 132.896C77.2428 133.205 77.6484 133.36 78.1543 133.36C78.6602 133.36 79.0635 133.205 79.3643 132.896C79.6696 132.581 79.8223 132.171 79.8223 131.665C79.8223 131.159 79.665 130.747 79.3506 130.428C79.0361 130.109 78.6374 129.949 78.1543 129.949ZM83.0693 138.337C83.0693 138.118 83.1331 137.936 83.2607 137.79C83.3929 137.644 83.5889 137.571 83.8486 137.571C84.1084 137.571 84.3044 137.644 84.4365 137.79C84.5732 137.936 84.6416 138.118 84.6416 138.337C84.6416 138.547 84.5732 138.722 84.4365 138.863C84.3044 139.005 84.1084 139.075 83.8486 139.075C83.5889 139.075 83.3929 139.005 83.2607 138.863C83.1331 138.722 83.0693 138.547 83.0693 138.337ZM91.9424 135.657H93.3232V136.689H91.9424V139H90.6709V136.689H86.1387V135.944L90.5957 129.047H91.9424V135.657ZM87.5742 135.657H90.6709V130.776L90.5205 131.05L87.5742 135.657ZM98.6211 139H97.3496V130.571L94.7998 131.508V130.359L98.4229 128.999H98.6211V139ZM102.483 138.337C102.483 138.118 102.547 137.936 102.675 137.79C102.807 137.644 103.003 137.571 103.263 137.571C103.522 137.571 103.718 137.644 103.851 137.79C103.987 137.936 104.056 138.118 104.056 138.337C104.056 138.547 103.987 138.722 103.851 138.863C103.718 139.005 103.522 139.075 103.263 139.075C103.003 139.075 102.807 139.005 102.675 138.863C102.547 138.722 102.483 138.547 102.483 138.337ZM112.443 129.758L108.321 139H106.995L111.104 130.086H105.717V129.047H112.443V129.758ZM119.915 131.645C119.915 132.141 119.783 132.583 119.519 132.971C119.259 133.358 118.906 133.661 118.459 133.88C118.979 134.103 119.389 134.429 119.689 134.857C119.995 135.286 120.147 135.771 120.147 136.313C120.147 137.175 119.856 137.861 119.272 138.371C118.694 138.882 117.93 139.137 116.982 139.137C116.025 139.137 115.257 138.882 114.679 138.371C114.104 137.856 113.817 137.17 113.817 136.313C113.817 135.776 113.963 135.29 114.255 134.857C114.551 134.424 114.959 134.096 115.479 133.873C115.036 133.654 114.688 133.351 114.433 132.964C114.177 132.576 114.05 132.137 114.05 131.645C114.05 130.806 114.319 130.141 114.856 129.648C115.394 129.156 116.103 128.91 116.982 128.91C117.857 128.91 118.564 129.156 119.102 129.648C119.644 130.141 119.915 130.806 119.915 131.645ZM118.883 136.286C118.883 135.73 118.705 135.277 118.35 134.926C117.999 134.575 117.538 134.399 116.969 134.399C116.399 134.399 115.941 134.573 115.595 134.919C115.253 135.265 115.082 135.721 115.082 136.286C115.082 136.851 115.248 137.296 115.581 137.619C115.918 137.943 116.385 138.104 116.982 138.104C117.575 138.104 118.04 137.943 118.377 137.619C118.714 137.291 118.883 136.847 118.883 136.286ZM116.982 129.949C116.486 129.949 116.082 130.104 115.772 130.414C115.467 130.719 115.314 131.136 115.314 131.665C115.314 132.171 115.465 132.581 115.766 132.896C116.071 133.205 116.477 133.36 116.982 133.36C117.488 133.36 117.892 133.205 118.192 132.896C118.498 132.581 118.65 132.171 118.65 131.665C118.65 131.159 118.493 130.747 118.179 130.428C117.864 130.109 117.465 129.949 116.982 129.949Z" fill="black" fill-opacity="0.7"/>
    <path d="M80 84C97.6731 84 112 69.6731 112 52C112 34.3269 97.6731 20 80 20C62.3269 20 48 34.3269 48 52C48 69.6731 62.3269 84 80 84Z" fill="#54C0EB"/>
    <path d="M57.4236 74.6772C63.2189 80.422 71.1811 84 80 84C88.8189 84 96.7811 80.422 102.576 74.6772H57.4236Z" fill="#84DBFF"/>
    <path d="M84.9386 66.4629H75.0614V71.7039H84.9386V66.4629Z" fill="white"/>
    <path d="M84.9385 66.4629H75.0614V67.622H84.9385V66.4629Z" fill="#E6E9EE"/>
    <path d="M89.1717 74.6772H70.8283C70.8283 73.0142 72.189 71.6535 73.852 71.6535H86.148C87.811 71.7039 89.1717 73.0142 89.1717 74.6772Z" fill="#E6E9EE"/>
    <path d="M99.6535 66.463H60.3464C59.137 66.463 58.1291 65.4551 58.1291 64.2457V37.2347C58.1291 36.0252 59.137 35.0174 60.3464 35.0174H99.6535C100.863 35.0174 101.871 36.0252 101.871 37.2347V64.2961C101.871 65.4551 100.863 66.463 99.6535 66.463Z" fill="#324A5E"/>
    <path d="M58.1291 62.0787V64.2961C58.1291 65.5055 59.0866 66.463 60.296 66.463H99.6535C100.863 66.463 101.82 65.5055 101.82 64.2961V62.0787H58.1291Z" fill="white"/>
    <path d="M100.258 36.5794H59.7921V60.2141H100.258V36.5794Z" fill="white"/>
    <path d="M98.293 65.2536C98.8496 65.2536 99.3008 64.8024 99.3008 64.2457C99.3008 63.6891 98.8496 63.2379 98.293 63.2379C97.7363 63.2379 97.2851 63.6891 97.2851 64.2457C97.2851 64.8024 97.7363 65.2536 98.293 65.2536Z" fill="#FF7058"/>
    <path d="M95.4709 65.2536C96.0275 65.2536 96.4787 64.8024 96.4787 64.2457C96.4787 63.6891 96.0275 63.2379 95.4709 63.2379C94.9142 63.2379 94.463 63.6891 94.463 64.2457C94.463 64.8024 94.9142 65.2536 95.4709 65.2536Z" fill="#4CDBC4"/>
    <path d="M92.6488 65.2536C93.2054 65.2536 93.6567 64.8024 93.6567 64.2457C93.6567 63.6891 93.2054 63.2379 92.6488 63.2379C92.0922 63.2379 91.6409 63.6891 91.6409 64.2457C91.6409 64.8024 92.0922 65.2536 92.6488 65.2536Z" fill="#54C0EB"/>
    <path d="M68.9134 43.2819H64.0252V57.2409H68.9134V43.2819Z" fill="#ACB3BA"/>
    <path d="M75.6662 49.3291H70.778V57.2913H75.6662V49.3291Z" fill="#4CDBC4"/>
    <path d="M82.4189 45.6H77.5307V57.241H82.4189V45.6Z" fill="#FFD05B"/>
    <path d="M89.222 39.2504H84.3338V57.2409H89.222V39.2504Z" fill="#84DBFF"/>
    <path d="M95.9748 53.1591H91.0866V57.241H95.9748V53.1591Z" fill="#FF7058"/>
    <path d="M46.0938 115H44.3643L39.9277 107.938V115H38.1982V105.047H39.9277L44.3779 112.136V105.047H46.0938V115ZM51.2344 115.137C50.1816 115.137 49.3271 114.806 48.6709 114.146C48.0192 113.48 47.6934 112.596 47.6934 111.493V111.288C47.6934 110.55 47.8346 109.891 48.1172 109.312C48.4043 108.729 48.8053 108.276 49.3203 107.952C49.8353 107.629 50.4095 107.467 51.043 107.467C52.0501 107.467 52.8271 107.788 53.374 108.431C53.9255 109.073 54.2012 109.982 54.2012 111.158V111.828H49.3682C49.4183 112.439 49.6211 112.922 49.9766 113.277C50.3366 113.633 50.7878 113.811 51.3301 113.811C52.0911 113.811 52.7109 113.503 53.1895 112.888L54.085 113.742C53.7887 114.184 53.3923 114.528 52.8955 114.774C52.4033 115.016 51.8496 115.137 51.2344 115.137ZM51.0361 108.8C50.5804 108.8 50.2113 108.959 49.9287 109.278C49.6507 109.597 49.473 110.042 49.3955 110.611H52.5605V110.488C52.5241 109.932 52.376 109.513 52.1162 109.23C51.8564 108.943 51.4964 108.8 51.0361 108.8ZM57.5781 105.806V107.604H58.8838V108.834H57.5781V112.963C57.5781 113.245 57.6328 113.451 57.7422 113.578C57.8561 113.701 58.0566 113.763 58.3438 113.763C58.5352 113.763 58.7288 113.74 58.9248 113.694V114.979C58.5465 115.084 58.182 115.137 57.8311 115.137C56.555 115.137 55.917 114.433 55.917 113.024V108.834H54.7002V107.604H55.917V105.806H57.5781ZM66.6562 112.71L67.832 107.604H69.4521L67.4355 115H66.0684L64.4824 109.921L62.9238 115H61.5566L59.5332 107.604H61.1533L62.3496 112.655L63.8672 107.604H65.1182L66.6562 112.71ZM70.252 111.233C70.252 110.509 70.3955 109.857 70.6826 109.278C70.9697 108.695 71.373 108.248 71.8926 107.938C72.4121 107.624 73.0091 107.467 73.6836 107.467C74.6816 107.467 75.4906 107.788 76.1104 108.431C76.7347 109.073 77.0719 109.925 77.1221 110.987L77.1289 111.377C77.1289 112.106 76.9876 112.758 76.7051 113.332C76.4271 113.906 76.026 114.351 75.502 114.665C74.9824 114.979 74.3809 115.137 73.6973 115.137C72.6536 115.137 71.8174 114.79 71.1885 114.098C70.5641 113.4 70.252 112.473 70.252 111.315V111.233ZM71.9131 111.377C71.9131 112.138 72.0703 112.735 72.3848 113.168C72.6992 113.596 73.1367 113.811 73.6973 113.811C74.2578 113.811 74.693 113.592 75.0029 113.154C75.3174 112.717 75.4746 112.076 75.4746 111.233C75.4746 110.486 75.3128 109.894 74.9893 109.456C74.6702 109.019 74.235 108.8 73.6836 108.8C73.1413 108.8 72.7106 109.016 72.3916 109.449C72.0726 109.878 71.9131 110.52 71.9131 111.377ZM82.4062 109.121C82.1875 109.085 81.9619 109.066 81.7295 109.066C80.9684 109.066 80.4557 109.358 80.1914 109.941V115H78.5303V107.604H80.1162L80.1572 108.431C80.5583 107.788 81.1143 107.467 81.8252 107.467C82.0622 107.467 82.2581 107.499 82.4131 107.562L82.4062 109.121ZM85.8584 111.828L85.1201 112.587V115H83.459V104.5H85.1201V110.557L85.6396 109.907L87.6836 107.604H89.6797L86.9316 110.687L89.9736 115H88.0527L85.8584 111.828ZM102.012 111.76C101.911 112.822 101.52 113.651 100.836 114.248C100.152 114.84 99.2432 115.137 98.1084 115.137C97.3154 115.137 96.6159 114.95 96.0098 114.576C95.4082 114.198 94.9434 113.662 94.6152 112.97C94.2871 112.277 94.1162 111.473 94.1025 110.557V109.627C94.1025 108.688 94.2689 107.861 94.6016 107.146C94.9342 106.43 95.4105 105.879 96.0303 105.491C96.6546 105.104 97.3747 104.91 98.1904 104.91C99.2887 104.91 100.173 105.209 100.843 105.806C101.513 106.403 101.902 107.246 102.012 108.335H100.289C100.207 107.619 99.9974 107.104 99.6602 106.79C99.3275 106.471 98.8376 106.312 98.1904 106.312C97.4385 106.312 96.8597 106.587 96.4541 107.139C96.0531 107.686 95.848 108.49 95.8389 109.552V110.434C95.8389 111.509 96.0303 112.329 96.4131 112.895C96.8005 113.46 97.3656 113.742 98.1084 113.742C98.7874 113.742 99.2979 113.59 99.6396 113.284C99.9814 112.979 100.198 112.471 100.289 111.76H102.012ZM107.822 115C107.749 114.859 107.686 114.629 107.631 114.31C107.102 114.861 106.455 115.137 105.689 115.137C104.947 115.137 104.34 114.925 103.871 114.501C103.402 114.077 103.167 113.553 103.167 112.929C103.167 112.14 103.459 111.536 104.042 111.117C104.63 110.693 105.468 110.481 106.558 110.481H107.576V109.996C107.576 109.613 107.469 109.308 107.255 109.08C107.041 108.848 106.715 108.731 106.277 108.731C105.899 108.731 105.589 108.827 105.348 109.019C105.106 109.205 104.985 109.445 104.985 109.736H103.324C103.324 109.331 103.459 108.952 103.728 108.602C103.996 108.246 104.361 107.968 104.821 107.768C105.286 107.567 105.803 107.467 106.373 107.467C107.239 107.467 107.929 107.686 108.444 108.123C108.959 108.556 109.224 109.167 109.237 109.955V113.291C109.237 113.956 109.331 114.487 109.518 114.884V115H107.822ZM105.997 113.804C106.325 113.804 106.633 113.724 106.92 113.564C107.212 113.405 107.43 113.191 107.576 112.922V111.527H106.681C106.065 111.527 105.603 111.634 105.293 111.849C104.983 112.063 104.828 112.366 104.828 112.758C104.828 113.077 104.933 113.332 105.143 113.523C105.357 113.71 105.642 113.804 105.997 113.804ZM114.85 109.121C114.631 109.085 114.405 109.066 114.173 109.066C113.412 109.066 112.899 109.358 112.635 109.941V115H110.974V107.604H112.56L112.601 108.431C113.002 107.788 113.558 107.467 114.269 107.467C114.506 107.467 114.701 107.499 114.856 107.562L114.85 109.121ZM115.451 111.247C115.451 110.108 115.715 109.194 116.244 108.506C116.773 107.813 117.481 107.467 118.37 107.467C119.154 107.467 119.787 107.74 120.271 108.287V104.5H121.932V115H120.428L120.346 114.234C119.849 114.836 119.186 115.137 118.356 115.137C117.491 115.137 116.789 114.788 116.251 114.091C115.718 113.394 115.451 112.446 115.451 111.247ZM117.112 111.391C117.112 112.143 117.256 112.73 117.543 113.154C117.835 113.574 118.247 113.783 118.78 113.783C119.459 113.783 119.956 113.48 120.271 112.874V109.716C119.965 109.123 119.473 108.827 118.794 108.827C118.256 108.827 117.841 109.041 117.55 109.47C117.258 109.894 117.112 110.534 117.112 111.391Z" fill="black" fill-opacity="0.7"/>
</svg>
