<svg width="64" height="64" viewBox="0 0 64 64" fill="none" xmlns="http://www.w3.org/2000/svg">
<path d="M32 64C49.6731 64 64 49.6731 64 32C64 14.3269 49.6731 0 32 0C14.3269 0 0 14.3269 0 32C0 49.6731 14.3269 64 32 64Z" fill="#21D0C3"/>
<path d="M31.5552 38.2257H23.1638H22.781V38.6087V44.5244H23.5468V38.9916H31.5552V46.7178V56.9047H32.321V46.7178V43.7774H40.3294V49.3103H41.0951V43.3946V43.0116H40.7121H32.321V28.1433H31.5552V38.2257Z" fill="white"/>
<path d="M31.9379 59.4629C32.732 59.4629 33.3754 58.8193 33.3754 58.0254C33.3754 57.2315 32.7319 56.5876 31.9379 56.5876C31.1439 56.5876 30.5004 57.2314 30.5004 58.0254C30.5004 58.8194 31.1439 59.4629 31.9379 59.4629Z" fill="#0F7986"/>
<path d="M17.8813 35.6127H10.4207V36.3785H17.8811V42.7091H18.647V24.0486H17.8811L17.8813 35.6127Z" fill="white"/>
<path d="M18.2643 44.1465C19.0583 44.1465 19.7018 43.5029 19.7018 42.709C19.7018 41.9149 19.0582 41.2712 18.2643 41.2712C17.4702 41.2712 16.8264 41.9149 16.8264 42.709C16.8264 43.503 17.4702 44.1465 18.2643 44.1465Z" fill="#FAD24D"/>
<path d="M10.4373 37.4988C11.2314 37.4988 11.875 36.8552 11.875 36.061C11.875 35.267 11.2314 34.6235 10.4373 34.6235C9.64326 34.6235 8.99976 35.2672 8.99976 36.061C8.99963 36.8552 9.64326 37.4988 10.4373 37.4988Z" fill="#0F7986"/>
<path d="M45.9367 35.6127H53.3972V36.3785H45.9367V42.7091H45.1708V24.0486H45.9367V35.6127Z" fill="white"/>
<path d="M45.5536 44.1233C44.7726 44.1233 44.1397 43.4902 44.1397 42.7092C44.1397 41.928 44.7727 41.2949 45.5536 41.2949C46.3347 41.2949 46.9678 41.928 46.9678 42.7092C46.9678 43.49 46.3347 44.1233 45.5536 44.1233Z" fill="#0F7986"/>
<path d="M53.3806 37.5066C52.5822 37.5066 51.9354 36.8596 51.9354 36.0613C51.9354 35.2631 52.5824 34.6162 53.3806 34.6162C54.1789 34.6162 54.8257 35.2632 54.8257 36.0613C54.8257 36.8596 54.1787 37.5066 53.3806 37.5066Z" fill="#FF5B62"/>
<path d="M13.6791 22.1472C13.749 22.1472 13.8181 22.1488 13.8873 22.1519C14.9109 19.2893 17.6455 17.2413 20.8598 17.2413C21.7161 17.2413 22.5388 17.3873 23.3036 17.6549C24.1655 11.5237 29.4316 6.80518 35.8009 6.80518C42.5181 6.80518 48.0096 12.0533 48.3994 18.6729C51.9815 18.8014 54.8454 21.7449 54.8454 25.3583C54.8454 29.0532 51.8504 32.0483 48.1554 32.0483C36.3044 32.0483 25.463 32.0483 13.6793 32.0483C10.9451 32.0483 8.72888 29.8319 8.72888 27.0978C8.72888 24.3637 10.9451 22.1471 13.6791 22.1472Z" fill="#ECF0F1"/>
<path d="M13.4036 21.4857C13.4734 21.4857 13.5425 21.4874 13.6115 21.4904C14.6351 18.628 17.3697 16.5799 20.5841 16.5799C21.4404 16.5799 22.263 16.7258 23.028 16.9935C23.8897 10.8622 29.156 6.1438 35.5251 6.1438C42.2425 6.1438 47.7341 11.3919 48.1237 18.0115C51.7056 18.1399 54.5696 21.0834 54.5696 24.6969C54.5696 28.3918 51.5746 31.3869 47.8796 31.3869C36.0289 31.3869 25.1875 31.3869 13.4037 31.3869C10.6696 31.3869 8.45325 29.1705 8.45325 26.4364C8.45325 23.7023 10.6694 21.4855 13.4036 21.4857Z" fill="white"/>
<path d="M40.7537 50.7605C39.9553 50.7605 39.3085 50.1135 39.3085 49.3152C39.3085 48.517 39.9555 47.8701 40.7537 47.8701C41.552 47.8701 42.1988 48.5171 42.1988 49.3152C42.199 50.1135 41.552 50.7605 40.7537 50.7605Z" fill="#FAD24D"/>
<path d="M23.1865 46.0232C22.3881 46.0232 21.7413 45.3762 21.7413 44.5779C21.7413 43.7797 22.3883 43.1328 23.1865 43.1328C23.9848 43.1328 24.6316 43.7798 24.6316 44.5779C24.6316 45.3762 23.9846 46.0232 23.1865 46.0232Z" fill="#FF5B62"/>
</svg>
