<svg width="64" height="64" viewBox="0 0 64 64" fill="none" xmlns="http://www.w3.org/2000/svg">
<path d="M32 64C49.6731 64 64 49.6731 64 32C64 14.3269 49.6731 0 32 0C14.3269 0 0 14.3269 0 32C0 49.6731 14.3269 64 32 64Z" fill="#FF5B62"/>
<path d="M32 37.2107C39.8079 37.2107 46.1374 35.5463 46.1374 33.4933C46.1374 31.4402 39.8079 29.7759 32 29.7759C24.1921 29.7759 17.8625 31.4402 17.8625 33.4933C17.8625 35.5463 24.1921 37.2107 32 37.2107Z" fill="#F4F6F7"/>
<path d="M46.1377 33.4648V38.1631C46.1377 40.2001 39.8078 41.8515 32.0001 41.8515C24.1922 41.8515 17.8625 40.2004 17.8625 38.1631V33.4648C17.8625 35.5021 24.1922 37.1532 32.0001 37.1532C39.808 37.1532 46.1377 35.5021 46.1377 33.4648Z" fill="#D7DEE0"/>
<path d="M32 29.4836C39.8079 29.4836 46.1374 27.8193 46.1374 25.7662C46.1374 23.7132 39.8079 22.0488 32 22.0488C24.1921 22.0488 17.8625 23.7132 17.8625 25.7662C17.8625 27.8193 24.1921 29.4836 32 29.4836Z" fill="#F4F6F7"/>
<path d="M46.1377 25.7368V30.4351C46.1377 32.4723 39.8078 34.1235 32.0001 34.1235C24.1922 34.1235 17.8625 32.4723 17.8625 30.4351V25.7368C17.8625 27.7741 24.1922 29.4252 32.0001 29.4252C39.808 29.4252 46.1377 27.7741 46.1377 25.7368Z" fill="#D7DEE0"/>
<path d="M32 21.7546C39.8079 21.7546 46.1374 20.0903 46.1374 18.0372C46.1374 15.9842 39.8079 14.3198 32 14.3198C24.1921 14.3198 17.8625 15.9842 17.8625 18.0372C17.8625 20.0903 24.1921 21.7546 32 21.7546Z" fill="#F4F6F7"/>
<path d="M46.1377 18.0083V22.7066C46.1377 24.7436 39.8078 26.395 32.0001 26.395C24.1922 26.395 17.8625 24.7438 17.8625 22.7066V18.0083C17.8625 20.0453 24.1922 21.6967 32.0001 21.6967C39.808 21.6967 46.1377 20.0456 46.1377 18.0083Z" fill="#D7DEE0"/>
<path d="M32 14.0276C39.8079 14.0276 46.1374 12.3632 46.1374 10.3102C46.1374 8.25711 39.8079 6.59277 32 6.59277C24.1921 6.59277 17.8625 8.25711 17.8625 10.3102C17.8625 12.3632 24.1921 14.0276 32 14.0276Z" fill="#F4F6F7"/>
<path d="M46.1377 10.2803V14.9785C46.1377 17.0156 39.8078 18.6669 32.0001 18.6669C24.1922 18.6669 17.8625 17.0158 17.8625 14.9785V10.2803C17.8625 12.3173 24.1922 13.9687 32.0001 13.9687C39.808 13.9687 46.1377 12.3175 46.1377 10.2803Z" fill="#D7DEE0"/>
<path d="M45.6672 15.9189V17.1043C44.0659 18.683 38.5543 19.8464 32.0001 19.8464C25.446 19.8464 19.9343 18.683 18.3328 17.1043V15.9189C19.9341 17.4973 25.446 18.661 32.0001 18.661C38.5543 18.661 44.0659 17.4973 45.6672 15.9189Z" fill="#C2CACC"/>
<path d="M45.6672 23.6533V24.8387C44.0659 26.4171 38.5543 27.5807 32.0001 27.5807C25.446 27.5807 19.9343 26.4171 18.3328 24.8387V23.6533C19.9341 25.2317 25.446 26.3953 32.0001 26.3953C38.5543 26.3953 44.0659 25.2317 45.6672 23.6533Z" fill="#C2CACC"/>
<path d="M45.6672 31.3813V32.5667C44.0659 34.1451 38.5543 35.3087 32.0001 35.3087C25.446 35.3087 19.9343 34.1451 18.3328 32.5667V31.3813C19.9341 32.9597 25.446 34.1234 32.0001 34.1234C38.5543 34.1234 44.0659 32.9596 45.6672 31.3813Z" fill="#C2CACC"/>
<path d="M40.6132 16.5028C41.0465 16.5028 41.3978 16.1515 41.3978 15.7182C41.3978 15.2849 41.0465 14.9336 40.6132 14.9336C40.1798 14.9336 39.8286 15.2849 39.8286 15.7182C39.8286 16.1515 40.1798 16.5028 40.6132 16.5028Z" fill="#FF5B62"/>
<path d="M38.4013 16.7573C38.8346 16.7573 39.1859 16.406 39.1859 15.9726C39.1859 15.5393 38.8346 15.188 38.4013 15.188C37.9679 15.188 37.6166 15.5393 37.6166 15.9726C37.6166 16.406 37.9679 16.7573 38.4013 16.7573Z" fill="#21D0C3"/>
<path d="M40.6132 24.1513C41.0465 24.1513 41.3978 23.8 41.3978 23.3667C41.3978 22.9333 41.0465 22.582 40.6132 22.582C40.1798 22.582 39.8286 22.9333 39.8286 23.3667C39.8286 23.8 40.1798 24.1513 40.6132 24.1513Z" fill="#FF5B62"/>
<path d="M38.4013 24.4062C38.8346 24.4062 39.1859 24.0549 39.1859 23.6215C39.1859 23.1882 38.8346 22.8369 38.4013 22.8369C37.9679 22.8369 37.6166 23.1882 37.6166 23.6215C37.6166 24.0549 37.9679 24.4062 38.4013 24.4062Z" fill="#21D0C3"/>
<path d="M40.6132 31.8002C41.0465 31.8002 41.3978 31.4489 41.3978 31.0156C41.3978 30.5822 41.0465 30.231 40.6132 30.231C40.1798 30.231 39.8286 30.5822 39.8286 31.0156C39.8286 31.4489 40.1798 31.8002 40.6132 31.8002Z" fill="#FF5B62"/>
<path d="M38.4013 32.0546C38.8346 32.0546 39.1859 31.7033 39.1859 31.27C39.1859 30.8366 38.8346 30.4854 38.4013 30.4854C37.9679 30.4854 37.6166 30.8366 37.6166 31.27C37.6166 31.7033 37.9679 32.0546 38.4013 32.0546Z" fill="#21D0C3"/>
<path d="M40.6132 39.4491C41.0465 39.4491 41.3978 39.0979 41.3978 38.6645C41.3978 38.2312 41.0465 37.8799 40.6132 37.8799C40.1798 37.8799 39.8286 38.2312 39.8286 38.6645C39.8286 39.0979 40.1798 39.4491 40.6132 39.4491Z" fill="#FF5B62"/>
<path d="M38.4013 39.7035C38.8346 39.7035 39.1859 39.3522 39.1859 38.9189C39.1859 38.4856 38.8346 38.1343 38.4013 38.1343C37.9679 38.1343 37.6166 38.4856 37.6166 38.9189C37.6166 39.3522 37.9679 39.7035 38.4013 39.7035Z" fill="#21D0C3"/>
<path d="M21.5628 16.134C21.4153 16.0663 21.3508 15.8913 21.4189 15.7438C21.4867 15.5963 21.6617 15.5318 21.8092 15.5999C21.9913 15.6843 22.7537 16.0054 23.96 16.26C24.6517 16.4061 25.4862 16.5296 26.4355 16.5734C26.5975 16.5803 26.7231 16.7175 26.7163 16.8795C26.7095 17.0415 26.5722 17.1671 26.4102 17.1604C25.423 17.1146 24.5567 16.9868 23.8405 16.8354C22.5716 16.5678 21.7581 16.2244 21.5628 16.1343V16.134Z" fill="#C2CACC"/>
<path d="M21.5628 14.9456C21.4153 14.8778 21.3508 14.7028 21.4189 14.5553C21.4867 14.4078 21.6617 14.3433 21.8092 14.4114C21.9913 14.4958 22.7537 14.8169 23.96 15.0716C24.6517 15.2177 25.4862 15.3412 26.4355 15.3849C26.5975 15.3918 26.7231 15.5291 26.7163 15.6911C26.7095 15.8531 26.5722 15.9787 26.4102 15.9719C25.423 15.9262 24.5567 15.7983 23.8405 15.6469C22.5716 15.3793 21.7581 15.0359 21.5628 14.9458V14.9456Z" fill="#C2CACC"/>
<path d="M21.5628 23.9519C21.4153 23.8842 21.3508 23.7092 21.4189 23.5617C21.4867 23.4142 21.6617 23.3497 21.8092 23.4178C21.9913 23.5022 22.7537 23.8233 23.96 24.0779C24.6517 24.224 25.4862 24.3475 26.4355 24.3913C26.5975 24.3982 26.7231 24.5354 26.7163 24.6974C26.7095 24.8594 26.5722 24.985 26.4102 24.9783C25.423 24.9325 24.5567 24.8047 23.8405 24.6533C22.5716 24.3857 21.7581 24.0423 21.5628 23.9522V23.9519Z" fill="#C2CACC"/>
<path d="M21.5628 22.7634C21.4153 22.6957 21.3508 22.5207 21.4189 22.3732C21.4867 22.2257 21.6617 22.1612 21.8092 22.2293C21.9913 22.3137 22.7537 22.6348 23.96 22.8894C24.6517 23.0356 25.4862 23.1591 26.4355 23.2028C26.5975 23.2097 26.7231 23.3469 26.7163 23.5089C26.7095 23.6709 26.5722 23.7966 26.4102 23.7898C25.423 23.7441 24.5567 23.6162 23.8405 23.4648C22.5716 23.1972 21.7581 22.8538 21.5628 22.7637V22.7634Z" fill="#C2CACC"/>
<path d="M21.5628 31.6321C21.4153 31.5643 21.3508 31.3893 21.4189 31.2418C21.4867 31.0943 21.6617 31.0298 21.8092 31.098C21.9913 31.1823 22.7537 31.5035 23.96 31.7581C24.6517 31.9042 25.4862 32.0277 26.4355 32.0715C26.5975 32.0784 26.7231 32.2156 26.7163 32.3776C26.7096 32.5396 26.5722 32.6652 26.4102 32.6585C25.423 32.6127 24.5567 32.4849 23.8405 32.3335C22.5716 32.0659 21.7581 31.7225 21.5628 31.6323V31.6321Z" fill="#C2CACC"/>
<path d="M21.5628 30.4436C21.4153 30.3759 21.3508 30.2009 21.4189 30.0534C21.4867 29.9059 21.6617 29.8414 21.8092 29.9095C21.9913 29.9939 22.7537 30.315 23.96 30.5696C24.6517 30.7157 25.4862 30.8392 26.4355 30.883C26.5975 30.8899 26.7231 31.0271 26.7163 31.1891C26.7096 31.3511 26.5722 31.4767 26.4102 31.47C25.423 31.4242 24.5567 31.2964 23.8405 31.145C22.5716 30.8774 21.7581 30.534 21.5628 30.4439V30.4436Z" fill="#C2CACC"/>
<path d="M21.5628 39.3445C21.4153 39.2767 21.3508 39.1017 21.4189 38.9542C21.4867 38.8067 21.6617 38.7422 21.8092 38.8104C21.9913 38.8947 22.7537 39.2159 23.96 39.4705C24.6517 39.6166 25.4862 39.7401 26.4355 39.7839C26.5975 39.7907 26.7231 39.928 26.7163 40.09C26.7096 40.252 26.5722 40.3776 26.4102 40.3709C25.423 40.3251 24.5567 40.1972 23.8405 40.0459C22.5716 39.7782 21.7581 39.4349 21.5628 39.3447V39.3445Z" fill="#C2CACC"/>
<path d="M21.5628 38.155C21.4153 38.0873 21.3508 37.9123 21.4189 37.7648C21.4867 37.6173 21.6617 37.5528 21.8092 37.6209C21.9913 37.7053 22.7537 38.0264 23.96 38.281C24.6517 38.4271 25.4862 38.5506 26.4355 38.5944C26.5975 38.6012 26.7231 38.7385 26.7163 38.9005C26.7096 39.0625 26.5722 39.1881 26.4102 39.1814C25.423 39.1356 24.5567 39.0077 23.8405 38.8564C22.5716 38.5887 21.7581 38.2454 21.5628 38.1553V38.155Z" fill="#C2CACC"/>
<path d="M7.13843 52.145H56.8616C56.2357 52.9164 55.5747 53.6575 54.8814 54.3671H9.11869C8.42531 53.6578 7.76431 52.9165 7.13843 52.145Z" fill="white"/>
<path d="M8.7854 54.0239H55.2141C55.1045 54.1397 54.9925 54.2532 54.8811 54.3674H9.1184C9.00715 54.2533 8.89528 54.1394 8.7854 54.0239Z" fill="#C8CACC"/>
<path d="M30.3191 41.8511H33.2216V52.145H30.3191V41.8511Z" fill="white"/>
<path d="M30.3191 41.8511H33.2216V44.8516L30.3191 41.8511Z" fill="#C8CACC"/>
<path d="M32.9068 41.8511H33.2213V52.145H32.9068V41.8511Z" fill="#C8CACC"/>
<path d="M29.3892 51.3975H34.1518C34.4338 51.3975 34.6645 51.6281 34.6645 51.9101V54.6025C34.6645 54.8845 34.4338 55.1154 34.1518 55.1154H29.3892C29.1072 55.1154 28.8765 54.8845 28.8765 54.6025V51.9101C28.8764 51.6282 29.1072 51.3975 29.3892 51.3975Z" fill="#21D0C3"/>
<path d="M34.6407 54.7559C34.5754 54.9637 34.3802 55.1155 34.1518 55.1155H29.3892C29.1605 55.1155 28.9657 54.9636 28.9003 54.7559H34.6412H34.6407Z" fill="#15BDB2"/>
</svg>
