<svg width="160" height="160" viewBox="0 0 160 160" fill="none" xmlns="http://www.w3.org/2000/svg">
<path d="M152 160H8.00009C3.58171 160 0 156.418 0 152V43.3137C0 41.1922 0.842777 39.1573 2.34324 37.6568L37.6572 2.34324C39.1577 0.842775 41.1926 0 43.314 0H152C156.418 0 160 3.58171 160 8.00009V152C160 156.418 156.418 160 152 160Z" fill="#FDF07C"/>
<path d="M38.4382 1.36444L1.36459 38.438C0.863356 38.9392 1.21801 39.7966 1.92731 39.7966H31.8389C36.2341 39.7966 39.7971 36.2336 39.7971 31.8383V1.92716C39.7967 1.21857 38.9394 0.863204 38.4382 1.36444Z" fill="#FEC350"/>
</svg>
