<svg width="64" height="64" viewBox="0 0 64 64" fill="none" xmlns="http://www.w3.org/2000/svg">
<g clip-path="url(#clip0)">
<path d="M32 64C49.6731 64 64 49.6731 64 32C64 14.3269 49.6731 0 32 0C14.3269 0 0 14.3269 0 32C0 49.6731 14.3269 64 32 64Z" fill="#54C0EB"/>
<path d="M4.88815 48.9324C10.5322 57.9528 20.5606 64.0001 32 64.0001C43.4393 64.0001 53.4677 58.0032 59.1118 48.9324H4.88815Z" fill="#84DBFF"/>
<path d="M55.685 42.7338V16.0252C55.685 15.0677 54.9795 14.3118 54.0724 14.3118H10.6835C9.77637 14.3118 9.07086 15.0677 9.07086 16.0252V42.7338C9.07086 43.6913 9.77637 44.4472 10.6835 44.4472H54.0724C54.9291 44.3968 55.685 43.6409 55.685 42.7338Z" fill="#324A5E"/>
<path d="M53.9213 18.0913H10.8347V41.4236H53.9213V18.0913Z" fill="#84DBFF"/>
<path d="M7.00473 45.7576C7.00473 47.5213 8.41575 48.9828 10.2299 48.9828H53.8205C55.5843 48.9828 57.0457 47.5717 57.0457 45.7576H7.00473Z" fill="white"/>
<path d="M36.2331 46.5135L37.3921 45.7576H26.6079L27.767 46.5135H36.2331Z" fill="#E6E9EE"/>
<path d="M32.3528 17.2851C32.8816 17.2851 33.3103 16.8564 33.3103 16.3276C33.3103 15.7988 32.8816 15.3701 32.3528 15.3701C31.824 15.3701 31.3953 15.7988 31.3953 16.3276C31.3953 16.8564 31.824 17.2851 32.3528 17.2851Z" fill="#2B3B4E"/>
<path d="M41.474 24.0882L42.5826 25.1969L38.148 29.2787L35.2755 26.6583C34.8724 26.3559 34.57 26.4063 34.2173 26.7591L29.1275 33.7134L24.9952 30.6394C24.7433 30.4378 24.3401 30.4378 24.0881 30.6898L19.2 35.1244C18.8976 35.3764 18.8976 35.8299 19.1496 36.1323C19.3007 36.2835 19.7543 36.485 20.1574 36.1827L24.6425 32.1512L28.8755 35.2756C29.3291 35.6283 29.7826 35.2756 29.8834 35.1244L34.9228 28.2205L37.6944 30.7402C37.9968 30.9921 38.4 30.9921 38.6519 30.7402L43.5905 26.1543L44.7999 27.3638L45.7574 23.0803L41.474 24.0882Z" fill="white"/>
</g>
<defs>
<clipPath id="clip0">
<rect width="64" height="64" fill="white"/>
</clipPath>
</defs>
</svg>
