<svg width="64" height="64" viewBox="0 0 64 64" fill="none" xmlns="http://www.w3.org/2000/svg">
<path d="M32 64C49.6731 64 64 49.6731 64 32C64 14.3269 49.6731 0 32 0C14.3269 0 0 14.3269 0 32C0 49.6731 14.3269 64 32 64Z" fill="#54C0EB"/>
<path d="M9.42365 54.6772C15.2189 60.4221 23.1811 64.0001 32 64.0001C40.8189 64.0001 48.7811 60.4221 54.5764 54.6772H9.42365Z" fill="#84DBFF"/>
<path d="M36.9386 46.4629H27.0614V51.7038H36.9386V46.4629Z" fill="white"/>
<path d="M36.9385 46.4629H27.0614V47.6219H36.9385V46.4629Z" fill="#E6E9EE"/>
<path d="M41.1717 54.6772H22.8283C22.8283 53.0142 24.189 51.6536 25.852 51.6536H38.148C39.811 51.704 41.1717 53.0142 41.1717 54.6772Z" fill="#E6E9EE"/>
<path d="M51.6535 46.463H12.3464C11.137 46.463 10.1291 45.4551 10.1291 44.2457V17.2347C10.1291 16.0252 11.137 15.0173 12.3464 15.0173H51.6535C52.863 15.0173 53.8709 16.0252 53.8709 17.2347V44.2961C53.8709 45.4551 52.863 46.463 51.6535 46.463Z" fill="#324A5E"/>
<path d="M10.1291 42.0786V44.2959C10.1291 45.5054 11.0866 46.4629 12.296 46.4629H51.6535C52.863 46.4629 53.8205 45.5054 53.8205 44.2959V42.0786H10.1291Z" fill="white"/>
<path d="M52.2582 16.5793H11.7921V40.214H52.2582V16.5793Z" fill="white"/>
<path d="M50.293 45.2535C50.8496 45.2535 51.3008 44.8023 51.3008 44.2457C51.3008 43.689 50.8496 43.2378 50.293 43.2378C49.7363 43.2378 49.2851 43.689 49.2851 44.2457C49.2851 44.8023 49.7363 45.2535 50.293 45.2535Z" fill="#FF7058"/>
<path d="M47.4709 45.2535C48.0275 45.2535 48.4787 44.8023 48.4787 44.2457C48.4787 43.689 48.0275 43.2378 47.4709 43.2378C46.9142 43.2378 46.463 43.689 46.463 44.2457C46.463 44.8023 46.9142 45.2535 47.4709 45.2535Z" fill="#4CDBC4"/>
<path d="M44.6488 45.2535C45.2054 45.2535 45.6567 44.8023 45.6567 44.2457C45.6567 43.689 45.2054 43.2378 44.6488 43.2378C44.0922 43.2378 43.6409 43.689 43.6409 44.2457C43.6409 44.8023 44.0922 45.2535 44.6488 45.2535Z" fill="#54C0EB"/>
<path d="M20.9134 23.2817H16.0252V37.2408H20.9134V23.2817Z" fill="#ACB3BA"/>
<path d="M27.6661 29.3291H22.778V37.2913H27.6661V29.3291Z" fill="#4CDBC4"/>
<path d="M34.4189 25.6001H29.5307V37.241H34.4189V25.6001Z" fill="#FFD05B"/>
<path d="M41.222 19.2502H36.3338V37.2408H41.222V19.2502Z" fill="#84DBFF"/>
<path d="M47.9748 33.1592H43.0866V37.2411H47.9748V33.1592Z" fill="#FF7058"/>
</svg>
