<svg width="64" height="64" viewBox="0 0 64 64" fill="none" xmlns="http://www.w3.org/2000/svg">
<path d="M32 0C49.673 0 64 14.327 64 32C64 49.673 49.673 64 32 64C14.327 64 0 49.673 0 32C0 14.327 14.327 0 32 0Z" fill="#FF5B62"/>
<path d="M54.4 46.0799H9.60004L9.60066 54.8446C15.3735 60.5055 23.2768 63.9999 32 63.9999C40.7233 63.9999 48.6265 60.5055 54.3994 54.8446L54.4 46.0799ZM54.4 35.1999H9.60004C9.60004 35.1999 9.60129 52.8313 9.60129 47.4988C9.60129 49.8963 13.6755 51.8393 18.7014 51.8393V51.8399H43.9002V51.8393C49.6998 51.8393 54.3987 49.5974 54.3987 46.8313C54.3988 52.8319 54.4 35.1999 54.4 35.1999ZM54.4 26.8799H9.60004C9.60004 26.8799 9.60129 41.9513 9.60129 36.6188C9.60129 39.0163 13.4938 40.9593 18.2944 40.9593V40.9599H43.4304V40.9593C49.4899 40.9593 54.3994 38.7174 54.3994 35.9513L54.4 26.8799Z" fill="#DADFE1"/>
<path d="M48 59.7081C50.3354 58.3565 52.4858 56.7212 54.4 54.8441V26.24H48V59.7081ZM9.60004 54.8441C11.5143 56.7212 13.664 58.3557 16 59.7081V27.52H9.60004V54.8441Z" fill="#E1E5E7"/>
<path d="M45.8804 21.4381C45.2665 18.391 39.9475 16 33.4004 16C28.3335 16 23.9957 17.2948 21.9957 19.353C21.394 19.2615 20.7669 19.1987 20.1026 19.1987C16.6229 19.1987 13.8024 20.6849 13.8024 22.3438C13.8024 22.674 13.8806 23.1854 14.0866 23.4816C11.3807 24.2342 9.60205 25.4158 9.60205 27.0176C9.60205 29.4151 13.6763 31.3581 18.7022 31.3581V31.36H43.9009V31.3594C49.7006 31.3594 54.3994 29.1175 54.3994 26.3507C54.3988 23.9085 50.7309 21.8804 45.8804 21.4381Z" fill="#F2F1EF"/>
<path d="M34.24 34.5601C33.7102 34.5601 33.28 34.9902 33.28 35.5201C33.28 36.0499 33.7102 36.4801 34.24 36.4801C34.7699 36.4801 35.2 36.0499 35.2 35.5201C35.2 34.9902 34.7699 34.5601 34.24 34.5601ZM34.24 45.4401C33.7102 45.4401 33.28 45.8702 33.28 46.4001C33.28 46.9299 33.7102 47.3601 34.24 47.3601C34.7699 47.3601 35.2 46.9299 35.2 46.4001C35.2 45.8702 34.7699 45.4401 34.24 45.4401ZM41.92 56.3201C41.3902 56.3201 40.96 56.7502 40.96 57.2801C40.96 57.8099 41.3902 58.2401 41.92 58.2401C42.4499 58.2401 42.88 57.8099 42.88 57.2801C42.88 56.7502 42.4499 56.3201 41.92 56.3201ZM34.24 56.3201C33.7102 56.3201 33.28 56.7502 33.28 57.2801C33.28 57.8099 33.7102 58.2401 34.24 58.2401C34.7699 58.2401 35.2 57.8099 35.2 57.2801C35.2 56.7502 34.7699 56.3201 34.24 56.3201Z" fill="#9ECEC7"/>
<path d="M38.08 34.5601C37.5501 34.5601 37.12 34.9902 37.12 35.5201C37.12 36.0499 37.5501 36.4801 38.08 36.4801C38.6099 36.4801 39.04 36.0499 39.04 35.5201C39.04 34.9902 38.6099 34.5601 38.08 34.5601ZM41.92 36.4801C42.4499 36.4801 42.88 36.0499 42.88 35.5201C42.88 34.9902 42.4499 34.5601 41.92 34.5601C41.3901 34.5601 40.96 34.9902 40.96 35.5201C40.96 36.0499 41.3901 36.4801 41.92 36.4801ZM38.08 45.4401C37.5501 45.4401 37.12 45.8702 37.12 46.4001C37.12 46.9299 37.5501 47.3601 38.08 47.3601C38.6099 47.3601 39.04 46.9299 39.04 46.4001C39.04 45.8702 38.6099 45.4401 38.08 45.4401ZM41.92 45.4401C41.3901 45.4401 40.96 45.8702 40.96 46.4001C40.96 46.9299 41.3901 47.3601 41.92 47.3601C42.4499 47.3601 42.88 46.9299 42.88 46.4001C42.88 45.8702 42.4499 45.4401 41.92 45.4401ZM38.08 56.3201C37.5501 56.3201 37.12 56.7502 37.12 57.2801C37.12 57.8099 37.5501 58.2401 38.08 58.2401C38.6099 58.2401 39.04 57.8099 39.04 57.2801C39.04 56.7502 38.6099 56.3201 38.08 56.3201Z" fill="#3DB39E"/>
<path d="M28.8 33.9202H19.2C18.8467 33.9202 18.56 34.2063 18.56 34.5602V35.2002C18.56 35.554 18.8467 35.8402 19.2 35.8402H28.8C29.1532 35.8402 29.44 35.554 29.44 35.2002V34.5602C29.44 34.2063 29.1532 33.9202 28.8 33.9202ZM28.8 36.4802H19.2C18.8467 36.4802 18.56 36.7663 18.56 37.1202V37.7602C18.56 38.114 18.8467 38.4002 19.2 38.4002H28.8C29.1532 38.4002 29.44 38.114 29.44 37.7602V37.1202C29.44 36.7663 29.1532 36.4802 28.8 36.4802ZM28.8 44.8002H19.2C18.8467 44.8002 18.56 45.0863 18.56 45.4402V46.0802C18.56 46.434 18.8467 46.7202 19.2 46.7202H28.8C29.1532 46.7202 29.44 46.434 29.44 46.0802V45.4402C29.44 45.0863 29.1532 44.8002 28.8 44.8002ZM28.8 47.3602H19.2C18.8467 47.3602 18.56 47.6463 18.56 48.0002V48.6402C18.56 48.994 18.8467 49.2802 19.2 49.2802H28.8C29.1532 49.2802 29.44 48.994 29.44 48.6402V48.0002C29.44 47.6463 29.1532 47.3602 28.8 47.3602ZM28.8 55.6802H19.2C18.8467 55.6802 18.56 55.9663 18.56 56.3202V56.9602C18.56 57.314 18.8467 57.6002 19.2 57.6002H28.8C29.1532 57.6002 29.44 57.314 29.44 56.9602V56.3202C29.44 55.9663 29.1532 55.6802 28.8 55.6802ZM28.8 58.2402H19.2C18.8467 58.2402 18.56 58.5263 18.56 58.8802V59.5202C18.56 59.874 18.8467 60.1602 19.2 60.1602H28.8C29.1532 60.1602 29.44 59.874 29.44 59.5202V58.8802C29.44 58.5263 29.1532 58.2402 28.8 58.2402Z" fill="#C4C8CA"/>
<path d="M32 20.48C28.4653 20.48 25.6 21.7446 25.6 23.68C25.6 25.6154 28.4653 26.88 32 26.88C35.5348 26.88 38.4 25.4476 38.4 23.68C38.4 21.913 35.5348 20.48 32 20.48ZM35.1463 22.9407L31.488 24.9432C31.3357 25.0265 31.1303 25.0559 30.9319 25.0431C30.7073 25.0751 30.4595 25.0489 30.2843 24.9522L28.8437 24.1637C28.5787 24.0191 28.5787 23.7849 28.8437 23.6402C29.108 23.4956 29.5368 23.4956 29.8012 23.6402L30.8808 24.2316L34.1922 22.4191C34.4558 22.2745 34.8827 22.2745 35.1464 22.4191C35.4099 22.5625 35.4099 22.7967 35.1463 22.9407Z" fill="#21D0C3"/>
<path d="M54.4 46.08L54.3988 48.0767V46.8312C54.3988 49.5973 49.6999 51.8392 43.9003 51.8392V51.8398H18.7015V51.8392C13.6757 51.8392 9.60141 49.8962 9.60141 47.4987V48.5035V46.08H9.60004V49.831C11.1808 51.6185 14.5748 52.7993 18.7015 52.7993L43.9003 52.7999C48.6593 52.7993 52.6478 51.3593 54.4002 49.2537V46.08H54.4ZM54.4 35.2L54.3988 37.3632V35.9513C54.3988 38.7174 49.4893 40.9593 43.4298 40.9593V40.9599H18.2938V40.9593C13.4932 40.9593 9.60066 39.0163 9.60066 36.6188V37.7606V35.2H9.60004V38.9536C11.1469 40.7232 14.4173 41.9193 18.2938 41.9193L43.4298 41.9199C48.4839 41.9193 52.6119 40.5011 54.4 38.3763V35.2Z" fill="#AEB2B4"/>
<path d="M54.3988 37.3632V35.9513C54.3988 37.9718 51.7735 39.7081 48 40.4998V41.4951C50.9108 40.9242 53.191 39.8126 54.4 38.3763V35.2H54.3994L54.3988 37.3632ZM16 41.7721V40.8018C12.3143 40.2988 9.60129 38.6188 9.60129 36.6188V37.7113V35.2H9.60004V38.9536C10.8302 40.3603 13.152 41.4022 16 41.7721Z" fill="#BFC2C4"/>
<path d="M54.3988 47.9335V46.8313C54.3988 48.9037 51.7613 50.6816 48 51.4432V52.4173C50.8845 51.8567 53.1828 50.7162 54.4 49.2538V46.0801H54.3994L54.3988 47.9335ZM16 52.6182V51.6447C12.2932 51.0962 9.60129 49.447 9.60129 47.4982V48.4582V46.0793H9.60004V49.8303C10.8193 51.2102 13.1194 52.2246 16 52.6182Z" fill="#BFC2C4"/>
</svg>
